<?xml version="1.0" standalone="no"?>
<!DOCTYPE svg PUBLIC "-//W3C//DTD SVG 20010904//EN"
 "http://www.w3.org/TR/2001/REC-SVG-20010904/DTD/svg10.dtd">
<svg version="1.0" xmlns="http://www.w3.org/2000/svg"
 width="512.000000pt" height="512.000000pt" viewBox="0 0 512.000000 512.000000"
 preserveAspectRatio="xMidYMid meet">
<metadata>
Created by potrace 1.14, written by Peter Selinger 2001-2017
</metadata>
<g transform="translate(0.000000,512.000000) scale(0.100000,-0.100000)"
fill="#000000" stroke="none">
<path d="M2060 4603 c41 -43 108 -112 149 -154 l73 -77 154 64 154 63 -51 -72
c-28 -40 -107 -154 -177 -254 -70 -100 -128 -181 -129 -179 -2 1 4 49 12 106
8 57 13 106 11 108 -2 2 -197 -214 -433 -480 -607 -682 -633 -712 -633 -720 0
-11 172 -156 263 -221 45 -32 82 -63 82 -67 0 -8 -310 -360 -356 -405 -53 -51
-364 -408 -364 -418 0 -14 158 -154 256 -227 l75 -56 -277 -309 c-153 -171
-278 -315 -278 -322 -1 -20 141 -183 257 -294 371 -356 845 -586 1367 -665
162 -25 518 -25 694 -1 269 38 500 94 691 167 47 19 164 73 260 121 265 133
495 291 684 470 l87 82 -39 41 c-21 23 -57 66 -79 96 -22 30 -69 84 -104 120
-80 82 -439 483 -439 491 0 3 44 40 98 82 53 42 128 105 167 140 l70 64 -56
64 c-31 35 -192 217 -358 404 -271 305 -300 341 -284 352 147 100 363 274 363
292 0 3 -110 130 -245 281 -232 262 -244 277 -245 316 -1 120 -83 236 -190
268 -30 9 -63 16 -75 16 -15 0 -58 42 -145 140 -68 77 -124 139 -126 137 -2
-2 9 -79 22 -157 4 -27 -37 28 -178 234 l-183 269 -300 83 c-165 46 -304 84
-310 84 -5 0 24 -35 65 -77z m35 -1217 c33 -7 71 -18 84 -26 46 -24 123 -104
149 -155 24 -44 27 -62 27 -145 0 -84 -3 -102 -28 -152 -36 -74 -119 -150
-195 -178 -45 -17 -73 -21 -132 -18 -132 6 -239 77 -298 198 -22 46 -26 68
-26 140 0 72 4 94 27 141 45 94 151 181 242 199 58 11 83 11 150 -4z m1667
-2148 c166 -76 248 -261 189 -424 -29 -79 -102 -161 -177 -199 -111 -56 -256
-44 -356 29 -146 109 -182 309 -84 465 34 53 128 127 186 146 67 22 173 14
242 -17z"/>
</g>
</svg>
